<svg width="16" height="16" viewBox="0 0 16 16" fill="none" xmlns="http://www.w3.org/2000/svg">
<path fill-rule="evenodd" clip-rule="evenodd" d="M3.93174 2.78434C3.14461 2.78434 2.50651 3.42244 2.50651 4.20957V12.0729C2.50651 12.8601 3.14461 13.4982 3.93174 13.4982H11.7951C12.5822 13.4982 13.2203 12.8601 13.2203 12.0729V8.14126C13.2203 7.84269 13.4624 7.60065 13.761 7.60065C14.0595 7.60065 14.3016 7.84269 14.3016 8.14126V12.0729C14.3016 13.4572 13.1794 14.5794 11.7951 14.5794H3.93174C2.54747 14.5794 1.42529 13.4572 1.42529 12.0729V4.20957C1.42529 2.8253 2.54747 1.70312 3.93174 1.70312H7.86343C8.16199 1.70312 8.40403 1.94516 8.40403 2.24373C8.40403 2.5423 8.16199 2.78434 7.86343 2.78434H3.93174Z" fill="#8A919F"/>
<path fill-rule="evenodd" clip-rule="evenodd" d="M10.8122 1.69831C10.5137 1.69831 10.2716 1.94035 10.2716 2.23891C10.2716 2.53748 10.5137 2.77952 10.8122 2.77952H12.4598L7.37302 7.86629C7.1619 8.07741 7.1619 8.4197 7.37302 8.63082C7.58414 8.84194 7.92643 8.84194 8.13755 8.63082L13.2204 3.54798V5.18768C13.2204 5.48625 13.4624 5.72828 13.761 5.72828C14.0596 5.72828 14.3016 5.48625 14.3016 5.18768L14.3016 2.23891C14.3016 1.94035 14.0596 1.69831 13.761 1.69831H10.8122Z" fill="#8A919F"/>
</svg>
