<svg width="18" height="18" viewBox="0 0 140 140" fill="none" xmlns="http://www.w3.org/2000/svg">
<circle cx="50" cy="47" r="6" fill="#8A919F"/>
<circle cx="93.1191" cy="47" r="6" fill="#8A919F"/>
<path fill-rule="evenodd" clip-rule="evenodd" d="M108.771 77.7721C110.849 72.9327 112 67.6008 112 62C112 39.9086 94.0919 22 72.0005 22C49.9091 22 32.0005 39.9086 32.0005 62C32.0005 69.2687 33.9392 76.0845 37.3279 81.9586C34.6555 83.7411 31.9614 85.7315 29.2498 87.9443C24.6498 80.3806 22.0005 71.4997 22.0005 62C22.0005 34.3858 44.3863 12 72.0005 12C99.6147 12 122 34.3858 122 62C122 69.6755 120.271 76.9471 117.18 83.4463C114.622 81.441 111.811 79.5207 108.771 77.7721Z" fill="#8A919F"/>
<path fill-rule="evenodd" clip-rule="evenodd" d="M29.99 97.3241C31.9533 97.504 34.0403 98.1869 35.9977 99.7528L36.1283 99.8573L36.2544 99.9671C42.805 105.672 51.4697 109.496 59.6714 111.88C67.8913 114.271 74.8833 115 77.5002 115H84.9794C85.3669 115 87.0005 115 88.0005 115C89.0005 115 90.0705 113.49 90.0705 113.49L93.4637 112.098C102.625 108.34 108.214 104.818 111.933 101.897C112.548 101.413 115.5 99.8366 116 98.6683C116.5 97.5 112.365 99 111.933 98C111.5 97 112.5 96.4995 113.5 95.4997C114.5 94.5 116.844 92.5685 117 92.3749C114.135 89.9217 108.109 86.5002 103.739 84.0199C97.213 80.3161 89.5558 76.8351 81.3759 73.3649C74.117 70.2855 71.5321 71.234 71.1183 71.4209C70.5976 71.6562 70.1396 72.1099 69.1556 74.0779L67.3519 77.6852L63.3792 78.3805C56.7889 79.5338 49.8709 82.7599 43.6903 86.6388C37.5525 90.4908 32.6486 94.6655 30.157 97.1571L29.99 97.3241ZM123.043 102.574C122.317 103.323 121.527 104.117 120.641 104.949C116.233 109.089 109.457 114.184 96.5002 119.5C96.2565 120.231 90.3145 123.811 84.9794 125.959C84.836 126.017 84.693 126.074 84.5505 126.129C84.3467 126.209 84.144 126.286 83.9428 126.361C81.2246 127.371 78.7817 127.919 77.5002 127.403C76.3489 126.939 76.1348 125.617 77.5002 123C75.7018 123 72.7813 122.769 69.1712 122.196C58.7294 120.541 42.518 116.031 31.0002 106C28.5002 104 24.0002 106.5 22.5002 109C22.1968 109.505 21.5046 110.298 20.6016 111.186C19.9797 111.798 19.2577 112.455 18.4938 113.096C17.5796 113.863 16.6055 114.606 15.6711 115.218C12.917 117.024 10.5086 117.695 11.0002 114.5C11.3171 112.44 11.8349 111.334 12.3308 110.275C12.554 109.798 12.7728 109.331 12.9668 108.79C13.1593 108.254 13.3275 107.645 13.4513 106.883C13.7999 104.739 13.7974 101.38 13 94.9997C12.9209 94.4857 12.8457 93.9903 12.7745 93.5133C12.6046 92.3765 12.4567 91.3433 12.3304 90.4065C12.063 88.4225 11.8925 86.8711 11.8149 85.6848C11.5556 81.722 12.3333 81.8331 14 83.4997C14.2945 83.7943 14.6099 84.1166 14.9436 84.4577C15.9106 85.446 17.0319 86.5919 18.2477 87.6766C18.8936 88.2529 19.5661 88.8118 20.2564 89.3207C21.6246 90.3292 23.0624 91.1409 24.5002 91.5002C30.3335 85.6669 46.0002 73.3002 62.0002 70.5002C64.0002 66.5002 68.0322 59.014 84.5002 66.0002C100.118 72.6256 114.839 79.699 123.153 88.4925C123.478 88.8358 123.793 89.1817 124.097 89.5304C124.127 89.5641 124.156 89.5978 124.185 89.6315C124.292 89.7539 124.397 89.8767 124.5 89.9997C124.573 90.0729 124.646 90.1487 124.717 90.2276C125.198 90.7621 125.581 91.4373 125.195 92.3749C125.151 92.4819 125.097 92.5923 125.032 92.7063C124.601 93.4619 123.687 94.3755 122 95.4997C119.62 97.0868 120.898 97.1579 122.856 96.7831C122.972 96.7608 123.091 96.7369 123.212 96.7116C124.13 96.5196 125.152 96.2492 126 95.9997C127.375 95.6942 129.254 95.8648 126.785 98.6683C126.736 98.7245 126.684 98.7817 126.631 98.84C126.444 99.0462 126.234 99.2659 126 99.4997C125.74 99.7599 125.476 100.03 125.207 100.31C124.915 100.613 124.617 100.927 124.309 101.251C123.906 101.675 123.487 102.116 123.043 102.574ZM78.5681 119.608C78.5681 119.608 78.5885 119.605 78.6259 119.603C78.5863 119.608 78.5681 119.608 78.5681 119.608Z" fill="#8A919F"/>
<path fill-rule="evenodd" clip-rule="evenodd" d="M90.2711 80.5796C90.4892 80.7201 90.5637 81.004 90.4426 81.2334C88.5004 86.5 85.5004 98.5 90.4439 109.769C90.5683 110.008 90.4811 110.303 90.2466 110.435C90.0121 110.568 89.7147 110.491 89.574 110.261C85.4958 103.601 83.0009 100 83.501 94C84.001 88 87.0157 84.0416 89.6049 80.6941C89.7636 80.4889 90.053 80.4392 90.2711 80.5796Z" fill="#8A919F"/>
<circle cx="102.5" cy="91" r="4" fill="#8A919F"/>
</svg>
