<svg width="18" height="18" viewBox="0 0 18 18" fill="none" xmlns="http://www.w3.org/2000/svg">
<path d="M4.71875 3H13.3125V2H4.71875V3ZM13.8125 3.5V9.28125H14.8125V3.5H13.8125ZM4.21875 9.28125V3.5H3.21875V9.28125H4.21875ZM13.3125 3C13.5886 3 13.8125 3.22386 13.8125 3.5H14.8125C14.8125 2.67157 14.1409 2 13.3125 2V3ZM4.71875 2C3.89032 2 3.21875 2.67157 3.21875 3.5H4.21875C4.21875 3.22386 4.44261 3 4.71875 3V2Z" fill="#515767"/>
<path d="M3.57692 15.5105L3.57692 15.0105H3.57692V15.5105ZM14.4231 15.5105V16.0105V15.5105ZM15.5 14.456H15H15.5ZM15.5 9.38359L15 9.38359L15.5 9.38359ZM2.7 9.68359H5.83125V8.68359H2.7V9.68359ZM3 14.456V9.38359H2V14.456H3ZM3.57692 15.0105C3.24832 15.0105 3 14.7524 3 14.456H2C2 15.3244 2.71599 16.0105 3.57692 16.0105V15.0105ZM14.4231 15.0105L3.57692 15.0105L3.57692 16.0105L14.4231 16.0105V15.0105ZM15 14.456C15 14.7524 14.7517 15.0105 14.4231 15.0105V16.0105C15.284 16.0105 16 15.3244 16 14.456H15ZM15 9.38359L15 14.456H16L16 9.38359L15 9.38359ZM12.2312 9.68359H15.3V8.68359H12.2312V9.68359ZM11.5312 9.38359V11.0926H12.5312V9.38359H11.5312ZM11.8312 10.7926H6.23125V11.7926H11.8312V10.7926ZM6.53125 11.0926V9.38359H5.53125V11.0926H6.53125ZM6.23125 10.7926C6.39694 10.7926 6.53125 10.9269 6.53125 11.0926H5.53125C5.53125 11.4792 5.84465 11.7926 6.23125 11.7926V10.7926ZM11.5312 11.0926C11.5312 10.9269 11.6656 10.7926 11.8312 10.7926V11.7926C12.2178 11.7926 12.5312 11.4792 12.5312 11.0926H11.5312ZM12.2312 8.68359C11.8446 8.68359 11.5312 8.99699 11.5312 9.38359H12.5312C12.5312 9.54928 12.3969 9.68359 12.2312 9.68359V8.68359ZM16 9.38359C16 8.99699 15.6866 8.68359 15.3 8.68359V9.68359C15.1343 9.68359 15 9.54928 15 9.38359L16 9.38359ZM5.83125 9.68359C5.66556 9.68359 5.53125 9.54928 5.53125 9.38359H6.53125C6.53125 8.997 6.21785 8.68359 5.83125 8.68359V9.68359ZM2.7 8.68359C2.3134 8.68359 2 8.99699 2 9.38359H3C3 9.54928 2.86568 9.68359 2.7 9.68359V8.68359Z" fill="#515767"/>
</svg>
