<svg width="55" height="73" viewBox="0 0 55 73" fill="none" xmlns="http://www.w3.org/2000/svg">
<path d="M33.1159 70.584L33.2842 70.4771C34.3505 69.8019 34.8527 68.5139 34.5343 67.2885C33.9675 65.0879 33.5016 61.6542 33.2453 58.3482C33.1237 56.789 31.8088 55.6054 30.2584 55.6705L30.0462 55.6784C28.4156 55.7461 27.1706 57.1645 27.2948 58.8045C27.5097 61.6203 27.9445 65.6824 28.8012 68.8815C29.3059 70.7665 31.4749 71.6269 33.1159 70.5866V70.584Z" fill="url(#paint0_linear_17398_145904)"/>
<path d="M12.0405 70.3087L11.8904 70.1783C10.9431 69.344 10.6506 67.9908 11.1553 66.8306C12.0612 64.7474 13.0577 61.4309 13.829 58.2058C14.1914 56.6857 15.6771 55.7263 17.199 56.0339L17.406 56.0756C19.0056 56.4015 20.015 57.9998 19.6345 59.598C18.9823 62.3461 17.9159 66.2857 16.57 69.3101C15.7754 71.0934 13.5003 71.5966 12.0431 70.3087H12.0405Z" fill="url(#paint1_linear_17398_145904)"/>
<path d="M20.6862 59.0938C20.43 62.3997 19.9641 65.8335 19.3973 68.034C19.0815 69.2594 19.5836 70.55 20.6474 71.2227L20.8156 71.3296C22.4566 72.3699 24.6256 71.5121 25.1303 69.6245C25.9871 66.4254 26.4219 62.3632 26.6367 59.5474" fill="url(#paint2_linear_17398_145904)"/>
<g filter="url(#filter0_i_17398_145904)">
<path d="M45.819 39.616L41.3309 15.3529C39.7961 7.05921 32.611 1.04688 24.2378 1.04688C15.8621 1.04688 8.67702 7.05921 7.14476 15.3529L2.65665 39.6186C0.663666 50.3918 8.87114 60.3437 19.7497 60.3437H28.7285C39.6071 60.3437 47.8146 50.3918 45.8216 39.6186L45.819 39.616Z" fill="url(#paint3_linear_17398_145904)"/>
</g>
<g filter="url(#filter1_i_17398_145904)">
<path d="M40.9503 13.7259C41.9105 16.9563 32.3701 17.6446 25.493 16.3071C17.9015 14.8314 9.11167 9.90365 10.6465 7.61448C12.6783 4.58485 14.8784 3.80267 14.8784 3.80267C8.45683 3.53673 3.63743 4.2433 3.01883 6.71237C2.02751 10.665 11.0451 17.3004 23.7045 20.5204C36.3612 23.7377 47.8739 22.3246 48.8653 18.372C49.546 15.6605 45.8525 12.3832 39.0349 9.35613C39.0349 9.35613 40.1272 10.9518 40.9528 13.7259H40.9503Z" fill="url(#paint4_linear_17398_145904)"/>
</g>
<g filter="url(#filter2_d_17398_145904)">
<path d="M27.8846 26.226C27.9467 28.7811 28.5576 33.289 31.9094 33.289C36.7262 33.289 35.885 25.6289 35.885 25.6289L27.8846 26.226Z" fill="url(#paint5_linear_17398_145904)"/>
<path d="M27.8846 26.226C27.9467 28.7811 28.5576 33.289 31.9094 33.289C36.7262 33.289 35.885 25.6289 35.885 25.6289L27.8846 26.226" stroke="#662406" stroke-width="0.742703" stroke-linecap="round" stroke-linejoin="round"/>
<path d="M35.8914 25.629L37.2969 25.5195L35.9484 26.9926" stroke="#662406" stroke-width="0.742703" stroke-linecap="round" stroke-linejoin="round"/>
<path d="M27.8906 26.226C27.8285 28.7811 27.2177 33.289 23.8658 33.289C19.049 33.289 19.8902 25.6289 19.8902 25.6289L27.8906 26.226Z" fill="url(#paint6_linear_17398_145904)"/>
<path d="M27.8906 26.226C27.8285 28.7811 27.2177 33.289 23.8658 33.289C19.049 33.289 19.8902 25.6289 19.8902 25.6289L27.8906 26.226" stroke="#662406" stroke-width="0.742703" stroke-linecap="round" stroke-linejoin="round"/>
<path d="M19.8867 25.629L18.4813 25.5195L19.8298 26.9926" stroke="#662406" stroke-width="0.742703" stroke-linecap="round" stroke-linejoin="round"/>
<path d="M33.9994 29.1977C33.9994 29.6322 33.6498 29.9844 33.2185 29.9844C32.7871 29.9844 32.4375 29.6322 32.4375 29.1977V28.1516C32.4375 27.7171 32.7871 27.3649 33.2185 27.3649C33.6498 27.3649 33.9994 27.7171 33.9994 28.1516V29.1977Z" fill="#662406"/>
<path d="M26.4135 29.1977C26.4135 29.6322 26.0638 29.9844 25.6325 29.9844C25.2012 29.9844 24.8516 29.6322 24.8516 29.1977V28.1516C24.8516 27.7171 25.2012 27.3649 25.6325 27.3649C26.0638 27.3649 26.4135 27.7171 26.4135 28.1516V29.1977Z" fill="#662406"/>
</g>
<path d="M41.9549 54.2008C42.7518 54.3534 42.4416 54.3829 44.3243 54.9877C45.2607 55.2885 46.2745 55.3568 47.29 55.1407C49.8311 54.6015 52.1251 52.1235 51.595 47.7989C51.6372 47.7522 51.6916 47.7012 51.755 47.6477C52.5748 46.9744 53.3603 45.6635 53.041 44.6517C52.3431 42.4392 49.8311 42.2863 48.4552 43.4299C47.4595 44.2574 46.2268 46.4249 46.4943 48.3511C46.6429 49.4203 46.3886 49.9411 46.2506 50.0912C45.7736 50.6116 44.9394 50.37 44.7457 49.6697" fill="url(#paint7_linear_17398_145904)"/>
<line x1="27.5428" y1="37.883" x2="29.7344" y2="36.9085" stroke="#662406" stroke-linecap="round"/>
<defs>
<filter id="filter0_i_17398_145904" x="2.35547" y="1.04688" width="43.7656" height="60.5589" filterUnits="userSpaceOnUse" color-interpolation-filters="sRGB">
<feFlood flood-opacity="0" result="BackgroundImageFix"/>
<feBlend mode="normal" in="SourceGraphic" in2="BackgroundImageFix" result="shape"/>
<feColorMatrix in="SourceAlpha" type="matrix" values="0 0 0 0 0 0 0 0 0 0 0 0 0 0 0 0 0 0 127 0" result="hardAlpha"/>
<feOffset dy="1.262"/>
<feGaussianBlur stdDeviation="5.83212"/>
<feComposite in2="hardAlpha" operator="arithmetic" k2="-1" k3="1"/>
<feColorMatrix type="matrix" values="0 0 0 0 1 0 0 0 0 0 0 0 0 0 0 0 0 0 0.3 0"/>
<feBlend mode="normal" in2="shape" result="effect1_innerShadow_17398_145904"/>
</filter>
<filter id="filter1_i_17398_145904" x="2.94531" y="3.75" width="46" height="19.0517" filterUnits="userSpaceOnUse" color-interpolation-filters="sRGB">
<feFlood flood-opacity="0" result="BackgroundImageFix"/>
<feBlend mode="normal" in="SourceGraphic" in2="BackgroundImageFix" result="shape"/>
<feColorMatrix in="SourceAlpha" type="matrix" values="0 0 0 0 0 0 0 0 0 0 0 0 0 0 0 0 0 0 127 0" result="hardAlpha"/>
<feOffset dy="0.504798"/>
<feGaussianBlur stdDeviation="0.630998"/>
<feComposite in2="hardAlpha" operator="arithmetic" k2="-1" k3="1"/>
<feColorMatrix type="matrix" values="0 0 0 0 1 0 0 0 0 0.72 0 0 0 0 0 0 0 0 1 0"/>
<feBlend mode="normal" in2="shape" result="effect1_innerShadow_17398_145904"/>
</filter>
<filter id="filter2_d_17398_145904" x="17.0998" y="24.6436" width="21.5778" height="10.5309" filterUnits="userSpaceOnUse" color-interpolation-filters="sRGB">
<feFlood flood-opacity="0" result="BackgroundImageFix"/>
<feColorMatrix in="SourceAlpha" type="matrix" values="0 0 0 0 0 0 0 0 0 0 0 0 0 0 0 0 0 0 127 0" result="hardAlpha"/>
<feOffset dy="0.504798"/>
<feGaussianBlur stdDeviation="0.504798"/>
<feComposite in2="hardAlpha" operator="out"/>
<feColorMatrix type="matrix" values="0 0 0 0 1 0 0 0 0 0 0 0 0 0 0 0 0 0 0.4 0"/>
<feBlend mode="normal" in2="BackgroundImageFix" result="effect1_dropShadow_17398_145904"/>
<feBlend mode="normal" in="SourceGraphic" in2="effect1_dropShadow_17398_145904" result="shape"/>
</filter>
<linearGradient id="paint0_linear_17398_145904" x1="30.9576" y1="55.668" x2="31.9086" y2="70.6094" gradientUnits="userSpaceOnUse">
<stop stop-color="#EE6A00"/>
<stop offset="0.630208" stop-color="#FF9900"/>
<stop offset="1" stop-color="#FF7F37"/>
</linearGradient>
<linearGradient id="paint1_linear_17398_145904" x1="15.3129" y1="55.9766" x2="16.075" y2="70.6332" gradientUnits="userSpaceOnUse">
<stop stop-color="#EE6A00"/>
<stop offset="0.630208" stop-color="#FF9900"/>
<stop offset="1" stop-color="#FF7F37"/>
</linearGradient>
<linearGradient id="paint2_linear_17398_145904" x1="22.9703" y1="59.0938" x2="23.6199" y2="71.4427" gradientUnits="userSpaceOnUse">
<stop stop-color="#EE6A00"/>
<stop offset="0.630208" stop-color="#FF9900"/>
<stop offset="1" stop-color="#FF7F37"/>
</linearGradient>
<linearGradient id="paint3_linear_17398_145904" x1="4.89342" y1="51.8388" x2="43.7357" y2="28.8835" gradientUnits="userSpaceOnUse">
<stop stop-color="#FF833E"/>
<stop offset="0.572917" stop-color="#FF9A3E"/>
<stop offset="1" stop-color="#FDB52A"/>
</linearGradient>
<linearGradient id="paint4_linear_17398_145904" x1="25.9449" y1="3.75" x2="25.9449" y2="22.297" gradientUnits="userSpaceOnUse">
<stop stop-color="#FFD426"/>
<stop offset="1" stop-color="#FFCF54"/>
</linearGradient>
<linearGradient id="paint5_linear_17398_145904" x1="31.913" y1="25.6289" x2="31.913" y2="33.289" gradientUnits="userSpaceOnUse">
<stop stop-color="#FFE373"/>
<stop offset="1" stop-color="#FFD426"/>
</linearGradient>
<linearGradient id="paint6_linear_17398_145904" x1="23.8622" y1="25.6289" x2="23.8622" y2="33.289" gradientUnits="userSpaceOnUse">
<stop stop-color="#FFE373"/>
<stop offset="1" stop-color="#FFD426"/>
</linearGradient>
<linearGradient id="paint7_linear_17398_145904" x1="51.0438" y1="43.5355" x2="42.0041" y2="49.8934" gradientUnits="userSpaceOnUse">
<stop stop-color="#F37630"/>
<stop offset="0.510417" stop-color="#FF9211"/>
<stop offset="1" stop-color="#FF7D17"/>
</linearGradient>
</defs>
</svg>
