<svg width="18" height="18" viewBox="0 0 140 140" fill="none" xmlns="http://www.w3.org/2000/svg">
<path fill-rule="evenodd" clip-rule="evenodd" d="M24 70.1973C24 95.7113 44.6832 116.395 70.1973 116.395C95.7113 116.395 116.395 95.7113 116.395 70.1973C116.395 44.6832 95.7113 24 70.1973 24C44.6832 24 24 44.6832 24 70.1973ZM70.1973 14C39.1604 14 14 39.1604 14 70.1973C14 101.234 39.1604 126.395 70.1973 126.395C101.234 126.395 126.395 101.234 126.395 70.1973C126.395 39.1604 101.234 14 70.1973 14Z" fill="#8A919F"/>
<path fill-rule="evenodd" clip-rule="evenodd" d="M54.5032 51.905C55.9663 53.3681 55.9663 55.7403 54.5032 57.2034L41.4554 70.2511L54.5032 83.2989C55.9663 84.762 55.9663 87.1341 54.5032 88.5972C53.0401 90.0603 50.6679 90.0603 49.2048 88.5972L33.5079 72.9003C32.0448 71.4372 32.0448 69.065 33.5079 67.602L49.2048 51.905C50.6679 50.4419 53.0401 50.4419 54.5032 51.905Z" fill="#8A919F"/>
<path fill-rule="evenodd" clip-rule="evenodd" d="M55.2103 51.1981C57.0639 53.0517 57.0639 56.057 55.2103 57.9106L42.8696 70.2513L55.2103 82.5919C57.0639 84.4455 57.0639 87.4509 55.2103 89.3045C53.3567 91.1581 50.3513 91.1581 48.4977 89.3045L32.8008 73.6075C30.9472 71.7539 30.9472 68.7486 32.8008 66.895L48.4977 51.1981C50.3514 49.3445 53.3567 49.3445 55.2103 51.1981ZM54.5032 57.2035C55.9663 55.7404 55.9663 53.3683 54.5032 51.9052C53.0401 50.4421 50.6679 50.4421 49.2048 51.9052L33.5079 67.6021C32.0448 69.0652 32.0448 71.4373 33.5079 72.9004L49.2048 88.5974C50.6679 90.0605 53.0401 90.0605 54.5032 88.5974C55.9663 87.1343 55.9663 84.7621 54.5032 83.299L41.4554 70.2513L54.5032 57.2035Z" fill="#8A919F"/>
<path fill-rule="evenodd" clip-rule="evenodd" d="M76.6586 49.4821C78.6336 50.099 79.7345 52.2002 79.1176 54.1752L68.3547 88.6304C67.7378 90.6055 65.6366 91.7064 63.6616 91.0894C61.6866 90.4725 60.5856 88.3713 61.2026 86.3963L71.9655 51.9411C72.5824 49.9661 74.6836 48.8652 76.6586 49.4821Z" fill="#8A919F"/>
<path fill-rule="evenodd" clip-rule="evenodd" d="M76.9568 48.5275C79.459 49.3091 80.8538 51.9712 80.0722 54.4733L69.3093 88.9286C68.5277 91.4307 65.8656 92.8255 63.3635 92.0439C60.8613 91.2623 59.4665 88.6003 60.2481 86.0981L71.011 51.6429C71.7926 49.1407 74.4547 47.7459 76.9568 48.5275ZM79.1177 54.1752C79.7346 52.2002 78.6337 50.099 76.6587 49.482C74.6836 48.8651 72.5825 49.966 71.9655 51.941L61.2026 86.3963C60.5857 88.3713 61.6866 90.4725 63.6616 91.0894C65.6366 91.7063 67.7378 90.6054 68.3548 88.6304L79.1177 54.1752Z" fill="#8A919F"/>
<path fill-rule="evenodd" clip-rule="evenodd" d="M86.4988 88.5969C85.0357 87.1338 85.0357 84.7617 86.4988 83.2986L99.5466 70.2508L86.4988 57.2031C85.0357 55.74 85.0357 53.3678 86.4988 51.9047C87.9619 50.4416 90.334 50.4416 91.7971 51.9047L107.494 67.6017C108.957 69.0648 108.957 71.4369 107.494 72.9L91.7971 88.5969C90.334 90.06 87.9619 90.06 86.4988 88.5969Z" fill="#8A919F"/>
<path fill-rule="evenodd" clip-rule="evenodd" d="M85.7917 89.3039C83.9381 87.4503 83.9381 84.445 85.7917 82.5913L98.1323 70.2507L85.7917 57.91C83.9381 56.0564 83.9381 53.0511 85.7917 51.1975C87.6453 49.3439 90.6506 49.3439 92.5042 51.1975L108.201 66.8944C110.055 68.748 110.055 71.7533 108.201 73.607L92.5042 89.3039C90.6506 91.1575 87.6453 91.1575 85.7917 89.3039ZM86.4988 83.2984C85.0357 84.7615 85.0357 87.1337 86.4988 88.5968C87.9619 90.0599 90.334 90.0599 91.7971 88.5968L107.494 72.8998C108.957 71.4368 108.957 69.0646 107.494 67.6015L91.7971 51.9046C90.334 50.4415 87.9619 50.4415 86.4988 51.9046C85.0357 53.3677 85.0357 55.7398 86.4988 57.2029L99.5466 70.2507L86.4988 83.2984Z" fill="#8A919F"/>
</svg>
