<svg width="16" height="16" viewBox="0 0 16 16" fill="none" xmlns="http://www.w3.org/2000/svg">
<path fill-rule="evenodd" clip-rule="evenodd" d="M8.56162 2.16903C8.66569 2.09612 8.78195 2.06075 8.88247 2.09071C8.97653 2.11874 9.23851 2.25868 9.50988 2.9675C9.64419 3.31832 9.9356 4.24191 9.42155 6.05383C9.29751 6.49103 9.61394 6.95254 10.0926 6.95922L13.492 7.00667L13.492 7.00672H13.4991C13.6049 7.00672 13.7228 7.01937 13.8134 7.05849C13.8544 7.07622 13.8815 7.0959 13.8999 7.11552C13.9166 7.13326 13.9368 7.16198 13.9515 7.21587C13.9848 7.33735 14.0228 7.74663 13.9473 8.42213C13.874 9.07808 13.698 9.9443 13.341 10.9593C13.0424 11.8083 12.6601 12.5287 12.0684 13.4874C12.0558 13.5047 12.0462 13.5192 12.0418 13.526L12.0404 13.528C12.0292 13.5449 12.0242 13.5526 12.018 13.5613C12.0076 13.5759 12.0018 13.5815 11.9983 13.5845C11.996 13.5865 11.9908 13.5907 11.9777 13.5954C11.9638 13.6004 11.9311 13.6095 11.8706 13.6095H5.56278L5.56373 6.58441C5.87126 6.41852 6.19881 6.20079 6.54112 5.8401C6.93883 5.42103 7.33789 4.82891 7.76254 3.94134C7.84974 3.75908 7.91745 3.55913 7.97574 3.37714C7.99264 3.32437 8.0087 3.2733 8.02438 3.22344L8.02439 3.2234C8.066 3.09109 8.10495 2.96727 8.14985 2.84264C8.2758 2.49303 8.40247 2.28052 8.56162 2.16903ZM10.452 2.6068C10.1323 1.7716 9.70208 1.28228 9.17063 1.12389C8.64564 0.967414 8.20308 1.18842 7.98278 1.34276C7.55169 1.64476 7.33837 2.11859 7.20071 2.50071C7.14817 2.64656 7.10002 2.79968 7.05661 2.93775C7.0422 2.98357 7.02832 3.02773 7.01496 3.06941C6.95791 3.24755 6.90763 3.39066 6.85248 3.50594C6.45683 4.33291 6.1121 4.82661 5.80935 5.14563C5.51322 5.45766 5.23983 5.62142 4.9473 5.76772C4.71095 5.88592 4.55494 6.12857 4.55491 6.40111L4.55388 13.912C4.55383 14.3021 4.87002 14.6183 5.26008 14.6183H11.8706C12.2097 14.6183 12.4663 14.5109 12.6519 14.3531C12.7387 14.2792 12.7988 14.2038 12.8387 14.1479C12.8556 14.1243 12.8704 14.102 12.8786 14.0895L12.8813 14.0854L12.8826 14.0835L12.8955 14.068L12.9142 14.0377C13.5304 13.0409 13.9578 12.2465 14.2927 11.294C14.6745 10.2085 14.8679 9.26762 14.9499 8.53421C15.0297 7.82035 15.009 7.25796 14.9246 6.94965C14.805 6.51236 14.5104 6.26063 14.2134 6.13235C13.9385 6.01358 13.661 5.9981 13.5028 5.99787L10.4907 5.95583C10.9296 4.15742 10.648 3.11853 10.452 2.6068ZM1.0008 6.46734C0.981809 6.06471 1.30313 5.72787 1.70621 5.72787H2.75264C3.14266 5.72787 3.45883 6.04405 3.45883 6.43407V13.9437C3.45883 14.3337 3.14266 14.6499 2.75264 14.6499H2.06044C1.68335 14.6499 1.37279 14.3536 1.35502 13.977L1.0008 6.46734Z" fill="#8A919F"/>
</svg>
