<svg width="18" height="18" viewBox="0 0 140 140" fill="none" xmlns="http://www.w3.org/2000/svg">
<path fill-rule="evenodd" clip-rule="evenodd" d="M84.9046 35.4046C85.1967 36.5196 84.7957 37.7591 84.0089 38.1731C70.8547 45.0944 57.8869 41.0823 52.9328 38.1405C52.1587 37.6808 51.7941 36.4189 52.1185 35.3219C52.4428 34.2249 53.3333 33.7082 54.1074 34.1679C58.5367 36.7981 70.6895 40.5868 82.9509 34.1353C83.7377 33.7213 84.6124 34.2896 84.9046 35.4046Z" fill="#8A919F"/>
<path fill-rule="evenodd" clip-rule="evenodd" d="M82.6371 41.5989C70.9926 46.6267 59.8363 44.1585 53.82 41.4118L49.6944 43.3181C44.8457 45.5584 37.8468 50.5258 32.357 57.7079C26.9632 64.7644 23.3743 73.4665 24.0694 83.5315C24.9861 96.8057 30.5761 104.871 38.3513 109.978C46.6009 115.396 58.2057 118.023 71.4524 118.023C84.4178 118.023 95.7084 114.951 103.495 109.132C110.869 103.622 116 95.0197 116 81.4126C116 71.3019 111.616 62.9881 105.566 56.4122C99.4148 49.7264 91.9833 45.3624 87.3991 43.5164L82.6371 41.5989ZM82.7234 28.496L81.0876 32.2791C70.4505 37.5148 60.0123 34.5329 55.8358 32.2744L53.6131 28.2441C59.265 28.4697 64.1104 26.1539 67.0882 22.9598C67.8205 22.2609 68.2825 22.0907 68.4152 22.0483C68.5646 22.0006 68.7214 21.9811 68.975 22.0224C69.2727 22.0708 69.6789 22.2047 70.1372 22.4594C70.6082 22.7211 70.925 22.9943 71.0251 23.0945C73.2078 25.2771 76.8225 27.6278 81.4293 28.3425C81.8578 28.409 82.2894 28.4603 82.7234 28.496ZM78.0962 16.0234C75.0601 12.9872 67.1661 8.73664 59.8793 16.0234C58.4175 17.7102 53.942 20.0718 47.7348 16.0234C41.5275 11.975 37.052 12.3123 35.5902 12.987C33.791 13.3244 28.1514 15.5835 29.1805 21.7581C29.7876 25.4003 32.7005 27.222 35.954 28.024C38.1247 28.5591 40.4471 28.6403 42.3372 28.5053L45.5 34.2403C44.6484 34.6338 43.7595 35.0839 42.8431 35.5893C41.9545 36.0793 41.0398 36.6213 40.1079 37.214C39.486 37.6095 38.8563 38.0276 38.2216 38.468C26.3207 46.7232 12.6129 62.7867 14.0932 84.2205C16.3425 116.792 42.7728 128.023 71.4524 128.023C100.132 128.023 126 114.546 126 81.4126C126 60.3652 111.344 45.9509 99.4892 38.5635C97.2042 37.1396 95.0232 35.9768 93.0713 35.0778C92.9464 35.0203 92.8225 34.9639 92.6995 34.9085C92.1581 34.6648 91.6355 34.442 91.1344 34.2403L93.6143 28.5053C95.6866 28.8014 98.6811 28.8376 101.412 28.1011C104.906 27.1591 107.969 24.9528 108.12 20.4089C108.458 10.2885 96.6504 10.2885 90.2408 16.0234C89.4874 16.6975 88.7345 17.2147 87.9922 17.6006C87.7581 17.7223 87.5251 17.8309 87.2935 17.9273C83.2592 19.6055 79.6384 17.5656 78.0962 16.0234Z" fill="#8A919F"/>
<path fill-rule="evenodd" clip-rule="evenodd" d="M63.3506 59.847C66.8653 56.3323 72.5638 56.3323 76.0785 59.847L89.0279 72.7964C92.5427 76.3111 92.5427 82.0096 89.0279 85.5243L76.0785 98.4737C72.5638 101.988 66.8653 101.988 63.3506 98.4737L50.4012 85.5243C46.8865 82.0096 46.8865 76.3111 50.4012 72.7964L63.3506 59.847ZM69.7146 67.6251L58.1793 79.1604L69.7146 90.6956L81.2498 79.1604L69.7146 67.6251Z" fill="#8A919F"/>
</svg>
